<svg xmlns="http://www.w3.org/2000/svg" width="115" height="35"><g fill="none"><path fill="#FFF" d="M45.032 12.818c-.255 0-.507 0-.759-.032-1.747-.16-3.366-.975-4.292-2.502-1-1.654-1.147-3.845-.766-5.701.35-1.72 1.353-3.24 2.978-3.989a6.78 6.78 0 015.53 0c1.748.846 2.667 2.608 2.877 4.478h-2.775a3.549 3.549 0 00-1.049-2.097 2.642 2.642 0 00-1.982-.64c-1.265.087-2.129 1-2.492 2.164a6.822 6.822 0 00-.252 2.314c.016.722.174 1.435.465 2.097a2.743 2.743 0 002.863 1.6c1.447-.17 2.23-1.432 2.447-2.771H50.6c-.35 3.177-2.422 5.079-5.568 5.079M56.028 3.95c.273 0 .545.017.815.049.932.083 1.813.46 2.517 1.076a4.04 4.04 0 011.188 2.328c.304 1.853-.241 3.936-1.996 4.863a5.604 5.604 0 01-2.922.541 4.795 4.795 0 01-2.681-.895c-1.52-1.167-1.85-3.432-1.293-5.18a3.8 3.8 0 011.548-2.055 5.236 5.236 0 012.824-.727m0 6.666c1.05 0 1.633-.811 1.748-1.783.095-.832-.028-1.898-.78-2.415a1.749 1.749 0 00-2.139.174c-.64.644-.699 1.748-.506 2.594.133.825.846 1.43 1.68 1.43M67.778 0h2.796v12.65h-2.796V9.64h-.032c.04.848-.24 1.68-.783 2.332a2.887 2.887 0 01-2.122.846 2.969 2.969 0 01-1.856-.566 3.397 3.397 0 01-1.115-1.615 6.935 6.935 0 01-.35-2.573c.008-.825.19-1.64.532-2.39a3.07 3.07 0 011.297-1.4 3.333 3.333 0 012.055-.282 2.651 2.651 0 011.71.982c.439.631.66 1.388.629 2.157h.031L67.777 0zm-1.633 10.616c1.066 0 1.647-.951 1.748-1.916.077-.842-.136-1.87-.916-2.338a1.672 1.672 0 00-2.097.35c-.566.677-.608 1.782-.385 2.596a1.68 1.68 0 001.654 1.322m10.074-6.68c2.709 0 4.31 1.632 4.31 4.425v.304h-5.974c.042.811.35 1.748 1.216 1.996a1.65 1.65 0 002.062-1.104h2.695a3.734 3.734 0 01-2.834 3.069 5.362 5.362 0 01-4.006-.448 4.024 4.024 0 01-1.804-3.104c-.143-1.29.056-2.726.906-3.75.849-1.025 2.153-1.399 3.429-1.399m1.6 3.922c-.108-.92-.576-1.866-1.625-1.849-1.049.018-1.53.926-1.622 1.85h3.247zm-30.588 9.732L50.82 30.06h-3.08L47 27.167h-4.848l-.755 2.894h-2.912l3.618-12.451 5.13-.017zm-.808 7.34l-1.835-7.106h-.031l-1.835 7.099 3.701.007zm9.2 3.08c-1.32 0-1.772-1.273-1.73-2.409a2.446 2.446 0 01.577-1.615c.387-.37.928-.53 1.454-.43.67.145 1.184.68 1.304 1.353h2.744a4.083 4.083 0 00-1.08-2.377 4.143 4.143 0 00-2.269-1.115c-1.72-.276-3.75.119-4.8 1.625a4.593 4.593 0 00-.75 2.426 5.191 5.191 0 00.492 2.608c.836 1.629 2.664 2.209 4.394 2.125a4.47 4.47 0 002.761-1.003 4.078 4.078 0 001.287-2.59h-2.744c-.217.895-.79 1.398-1.633 1.398m11.43-6.495h2.797v8.547h-2.796v-3.027h-.035a3.398 3.398 0 01-.787 2.328 2.9 2.9 0 01-2.122.842 2.976 2.976 0 01-1.86-.566 3.411 3.411 0 01-1.121-1.615 7.04 7.04 0 01-.35-2.573 5.915 5.915 0 01.542-2.38 3.037 3.037 0 011.3-1.398 3.319 3.319 0 012.052-.287 2.662 2.662 0 011.73.986c.44.632.659 1.391.626 2.16h.035l-.01-3.017zm-1.632 6.495c1.049 0 1.647-.95 1.748-1.916.077-.842-.136-1.87-.912-2.338a1.683 1.683 0 00-2.098.35c-.566.678-.608 1.782-.384 2.6a1.68 1.68 0 001.657 1.318m12.02-10.416h2.797V30.06h-2.797v-3.027h-.034a3.402 3.402 0 01-.797 2.328 2.903 2.903 0 01-2.122.842 2.974 2.974 0 01-1.86-.566 3.41 3.41 0 01-1.118-1.615 6.891 6.891 0 01-.35-2.573 5.911 5.911 0 01.538-2.38 3.068 3.068 0 011.3-1.398 3.332 3.332 0 012.056-.287c.675.097 1.288.45 1.71.986.438.632.658 1.391.625 2.16h.035l.017-6.924zM75.83 28.023c1.066 0 1.646-.95 1.748-1.916.077-.842-.137-1.87-.916-2.338a1.676 1.676 0 00-2.097.35c-.567.678-.608 1.782-.385 2.6.17.775.86 1.325 1.654 1.318m10.077-6.662c2.709 0 4.306 1.632 4.306 4.425v.3H84.24c.042.815.35 1.748 1.217 1.996a1.646 1.646 0 002.062-1.101h2.663a3.734 3.734 0 01-2.83 3.07 5.375 5.375 0 01-4.007-.452 4.037 4.037 0 01-1.807-3.097c-.14-1.286.06-2.723.909-3.75.85-1.028 2.153-1.398 3.429-1.398m1.597 3.918c-.104-.92-.573-1.863-1.621-1.85-1.05.015-1.531.927-1.626 1.85h3.247zm14.839-3.94c-1.615 0-2.56 1.193-2.56 3.195h-.03c0-1.23-.458-2.551-1.703-3.016-1.104-.413-2.485-.147-3.174.86a3.823 3.823 0 00-.559 2.156h-.035v-3.027h-2.796v8.547h2.796v-4.677c0-.79.294-1.706 1.185-1.835.38-.07.774.03 1.073.276a1.5 1.5 0 01.416 1.14v5.096h2.796v-4.677c0-.79.294-1.706 1.185-1.835.38-.07.769.032 1.066.276.287.307.434.72.406 1.14v5.096h2.796v-5.243c0-2.189-1.048-3.496-2.859-3.496m6.627.168l1.514 8.347h.035l1.513-8.347 2.975.042-2.667 12.171h-2.978l.8-3.642h-2.272l-1.898-8.571h2.978zM31.193 0v18.089c0 .409 0 .818-.049 1.227-.662 8.346-7.796 14.68-16.161 14.35C6.617 33.336.004 26.46 0 18.089V0h31.193z"/><path fill="#000" d="M6.27 18.68c-.44.293-.958.45-1.488.45h-.028v-4.026a10.66 10.66 0 01.674-3.74 10.837 10.837 0 0110.19-7.016h5.38v2.696h2.67V9.72h2.737v4.61c0 .252.028.504.028.759v4.048h-.028c-.53 0-1.048-.158-1.49-.451l-.027.028a2.77 2.77 0 01.723 1.866v2.594a2.688 2.688 0 01-2.68 2.691h-3.846a2.796 2.796 0 01-2.796-2.796v-3.167a.7.7 0 00-1.398 0v3.167a2.796 2.796 0 01-2.797 2.796H8.25a2.688 2.688 0 01-2.656-2.691V20.58a2.764 2.764 0 01.699-1.866l-.028-.028"/><path fill="#FFF" d="M13.492 20.581c0-.772-.626-1.398-1.398-1.398H8.368c-.772 0-1.398.626-1.398 1.398v2.594c0 .714.579 1.293 1.293 1.293h3.845c.772 0 1.398-.626 1.398-1.398l-.014-2.489zm10.724 0c0-.772-.626-1.398-1.398-1.398h-3.726c-.772 0-1.398.626-1.398 1.398v2.489c0 .772.626 1.398 1.398 1.398h3.845c.714 0 1.293-.579 1.293-1.293l-.014-2.594z"/><path fill="#000" d="M20.973 20.487H19.62v2.68h2.684V21.77a1.342 1.342 0 01-1.331-1.283m-10.707 0H8.91v2.68h2.684V21.77a1.336 1.336 0 01-1.338-1.29"/><path fill="#FFF" d="M7.47 16.45a2.663 2.663 0 01-.7 1.786l.029.031a2.8 2.8 0 011.559-.479H12.1a2.77 2.77 0 011.88.738c.4-.47.985-.74 1.602-.745a2.1 2.1 0 011.611.745 2.764 2.764 0 011.895-.741h3.736a2.799 2.799 0 011.56.479l.027-.032a2.667 2.667 0 01-.699-1.748v-1.38a2.709 2.709 0 00-1.618-2.447 2.747 2.747 0 00-3.164.741 4.139 4.139 0 01-6.676 0 2.756 2.756 0 00-3.146-.769 2.704 2.704 0 00-1.65 2.468l.01 1.353z"/></g></svg>