<svg data-name="Layer 1" xmlns="http://www.w3.org/2000/svg" viewBox="0 0 481.988 626.263"><defs><mask id="a" x="-926.456" y="-206.728" width="1440" height="885" maskUnits="userSpaceOnUse"><path data-name="9rxx8a593a" d="M0 1h1440v885H0V1z" fill="#fff" transform="translate(-926.456 -207.728)"/></mask></defs><g mask="url(#a)"><path d="M114.631 472.363l-31.247-59.3-8.987-.142 31.247 59.301zm85.788-24.028l-50.488-42.671-8.272 3.052 50.489 42.67zm66.23-50.673l-63.55-22.24-6.567 5.95 63.55 22.239zm46.663-72.852l-67.358 2.793-3.963 7.702 67.362-2.76zm14.617-87.445l-61.296 28.766-.622 9.53 61.324-28.807zm-17.561-80.794l-47.957 47.994 2.55 8.487 47.99-47.999zm-46.231-74.282l-25.188 62.712 5.41 7.093 25.183-62.746zm-69.092-50.066l-.526 67.291 6.741 4.562.527-67.29zm-85.205-19.59l23.047 62.213 8.7 1.265-23.014-62.218z" fill="#ff00e9"/><path d="M40.438 543.641l-15.535-65.808-7.816-2.444 15.535 65.81zm81.153 2.525l-33.229-57.838-9.036.143 33.353 57.721zm81.424-16.692l-46.625-48.281-8.409 2.423 46.626 48.282zm73.302-37.144l-59.356-33.31-7.805 4.528 59.355 33.31zm56.175-52.777l-64.372-17.957-5.913 6.408 64.36 17.858zm47.101-70.364l-67.484-.738-4.155 8.628 67.526.81zm23.014-76.785l-65.782 17.733-2.1 8.569 65.754-17.696zm.336-81.21l-58.466 35.349.312 9.222 58.467-35.349zm-18.303-79.792l-46.445 47.862 2.606 8.427 46.443-47.894zm-39.556-71.558l-33.24 58.877 4.786 7.501 33.072-58.856zM289.557 0l-17.235 66.37 6.829 6.027 17.204-66.333z" fill="#7400ff"/><path d="M23.35 617.945L7.669 552.158 0 549.693l15.746 65.814zm81.63 8.318L75.2 566.968l-8.98-.328 29.815 59.293zm77.933-10.367l-41.627-52.943-8.858 1.458 41.69 52.903zm73.237-25.592l-50.553-42.711-8.223 2.965 50.59 42.74zm68.413-36.684l-59.554-32.897-7.512 4.88 59.555 32.898zm56.327-54.516l-64.226-19.586-6.275 6.271 64.221 19.553zm45.928-62.616l-67.54-6.425-4.924 7.596 67.54 6.425zm33.263-72.074l-67.28 7.822-3.364 8.175 67.285-7.789zm20.32-75.575l-63.643 21.113-1.574 8.605 63.676-21.117zm1.296-79.873l-58.443 35.267.29 9.304 58.444-35.268zm-14.317-76.75l-50.932 46.482 2.095 8.924 50.935-46.448z" fill="#0f02b7"/></g></svg>