<svg width="154" height="70" xmlns="http://www.w3.org/2000/svg"><g fill="none" fill-rule="evenodd"><path d="M0 53.217v10.217C0 67.045 2.962 70 6.582 70h140.836c3.62 0 6.582-2.955 6.582-6.566V53.217H0z" fill="#FFFFFE"/><path d="M154 6.566C154 2.955 151.038 0 147.418 0H6.582C2.962 0 0 2.955 0 6.566v44.87h154V6.567z" fill="#929497"/><path d="M140.262 20.76l-3.718 7.48h7.437l-3.719-7.48zm8.922 13.212h-2.355l-1.808-3.665h-9.558l-1.807 3.665h-4.899l-.078-.059-9.019-6.836h-2.028v6.895h-2.043V18.734h2.043v6.275h1.973l8.914-6.275h3.563l-10.379 7.295 9.925 7.453 7.358-14.717h2.593l7.605 15.207zm-38.267 0h2.043V18.765h-2.043v15.207zM93.202 20.834h6.851v13.138h2.042V20.834h6.881v-2.069H93.202v2.069zm-3.68.61c-.466-.404-1.115-.61-1.932-.61h-8.95v5.044h8.85c.893 0 1.562-.206 1.992-.613.48-.457.722-1.227.722-2.286 0-.632-.223-1.134-.682-1.534zm1.072 5.26c.333.199.617.503.848.912.39.676.587 1.564.587 2.64v3.716h-2.042V30.09c0-.807-.151-1.373-.448-1.683-.295-.305-.793-.46-1.478-.46H78.64v6.025h-2.042V18.765h10.444c1.775 0 3.12.424 3.998 1.26.801.755 1.207 1.84 1.207 3.22 0 1.039-.227 1.889-.678 2.526-.217.316-.545.63-.975.933zm-29.087 7.268H74.59v-2.067H63.55V27.14h10.755v-2.07H63.55v-4.236h11.04v-2.069H61.506v15.207zm-3.022-7.866c-.894-.655-2.256-.973-4.166-.973h-6.3c-1.742 0-2.487-.258-2.806-.475-.347-.237-.525-.73-.525-1.465 0-.868.169-1.47.502-1.79.389-.378 1.183-.57 2.36-.57h6.786c1.254 0 2.157.218 2.683.648.45.364.666.92.666 1.7v.29h2.042v-.29c0-2.93-1.71-4.416-5.085-4.416H47.53c-1.664 0-2.905.352-3.688 1.045-.793.702-1.194 1.84-1.194 3.385 0 1.388.34 2.398 1.01 3.003.752.675 2.046 1.003 3.953 1.003h7.096c1.225 0 2.062.176 2.49.522.407.333.614.934.614 1.788 0 .85-.23 1.443-.703 1.816-.486.383-1.26.578-2.3.578h-6.666c-1.25 0-2.152-.224-2.68-.667-.436-.365-.648-.93-.648-1.73v-.29l-2.041.017v.287c0 1.47.45 2.604 1.34 3.372.836.715 2.026 1.078 3.542 1.078h7.275c1.718 0 2.977-.335 3.746-.996.78-.673 1.176-1.825 1.176-3.423v-.295c0-1.426-.458-2.486-1.366-3.152zm-23.26-9.175a13.29 13.29 0 00-.932-.933L17.463 31.04a9.734 9.734 0 011.57-12.682 9.786 9.786 0 019.882-1.92l2.588-2.365c-4.658-2.381-10.5-1.799-14.62 1.905-5.328 4.79-5.756 12.98-.956 18.297.4.443.848.868 1.338 1.271l16.697-14.953a9.736 9.736 0 01-1.844 12.255 9.767 9.767 0 01-8.189 2.365l-2.894 2.562c3.914 1.544 8.83 1.413 13.235-2.546 5.33-4.79 5.757-12.981.956-18.299zm6.688 19.29c-3.467 5.379-9.517 8.946-16.403 8.946-10.767 0-19.496-8.708-19.496-19.448 0-10.742 8.729-19.449 19.496-19.449 6.868 0 12.904 3.546 16.376 8.902h-4.009A16.247 16.247 0 0025.51 9.483c-8.988 0-16.274 7.27-16.274 16.236 0 8.964 7.286 16.233 16.274 16.233a16.25 16.25 0 0012.404-5.73h3.999z" fill="#FFFFFE"/><path fill="#929497" d="M45 65h1v-7h-1zm3-4.97c0-.693.167-1.193.5-1.5.333-.307.864-.46 1.592-.46h3.24c1.456 0 2.184.655 2.184 1.965h-.666c0-.416-.118-.724-.352-.926-.266-.227-.7-.34-1.305-.34H50.1c-.574 0-.962.103-1.166.31-.179.18-.269.497-.269.95 0 .401.1.672.297.812.235.167.685.25 1.351.25h2.87c.833 0 1.439.145 1.819.434.38.289.569.75.569 1.38v.14c0 .718-.164 1.224-.49 1.516-.328.293-.868.439-1.62.439h-3.315c-.66 0-1.17-.16-1.527-.479-.376-.339-.564-.838-.564-1.495h.666c0 .419.114.727.342.927.266.232.7.349 1.306.349h3.036c.506 0 .882-.101 1.13-.304.246-.203.37-.527.37-.972 0-.452-.11-.771-.33-.958-.219-.186-.624-.279-1.217-.279h-3.23c-.827 0-1.398-.147-1.712-.44-.278-.26-.417-.7-.417-1.32"/><path d="M48 60.03c0-.693.167-1.193.5-1.5.333-.307.864-.46 1.592-.46h3.24c1.456 0 2.184.655 2.184 1.965h-.666c0-.416-.118-.724-.352-.926-.266-.227-.7-.34-1.305-.34H50.1c-.574 0-.962.103-1.166.31-.179.18-.269.497-.269.95 0 .401.1.672.297.812.235.167.685.25 1.351.25h2.87c.833 0 1.439.145 1.819.434.38.289.569.75.569 1.38v.14c0 .718-.164 1.224-.49 1.516-.328.293-.868.439-1.62.439h-3.315c-.66 0-1.17-.16-1.527-.479-.376-.339-.564-.838-.564-1.495h.666c0 .419.114.727.342.927.266.232.7.349 1.306.349h3.036c.506 0 .882-.101 1.13-.304.246-.203.37-.527.37-.972 0-.452-.11-.771-.33-.958-.219-.186-.624-.279-1.217-.279h-3.23c-.827 0-1.398-.147-1.712-.44-.278-.26-.417-.7-.417-1.32z" stroke="#929497" stroke-width=".422"/><path d="M63.736 60.413c0-.684-.113-1.142-.339-1.37-.225-.23-.664-.345-1.318-.345h-2.814c-.624 0-1.065.122-1.324.364-.259.243-.389.693-.389 1.351v2.214c0 .658.124 1.102.37 1.33.248.23.695.345 1.343.345h2.814c.672 0 1.116-.11 1.333-.33.216-.218.324-.667.324-1.345v-2.214zm.666 2.214c0 .957-.173 1.599-.518 1.924-.315.3-.914.449-1.796.449h-2.814c-.876 0-1.493-.175-1.851-.524-.358-.348-.537-.965-.537-1.85v-2.153c0-.897.174-1.534.523-1.91.349-.375.97-.563 1.865-.563h2.814c.827 0 1.407.16 1.74.479.383.365.574 1.03.574 1.994v2.154z" fill="#929497"/><path d="M63.736 60.413c0-.684-.113-1.142-.339-1.37-.225-.23-.664-.345-1.318-.345h-2.814c-.624 0-1.065.122-1.324.364-.259.243-.389.693-.389 1.351v2.214c0 .658.124 1.102.37 1.33.248.23.695.345 1.343.345h2.814c.672 0 1.116-.11 1.333-.33.216-.218.324-.667.324-1.345v-2.214zm.666 2.214c0 .957-.173 1.599-.518 1.924-.315.3-.914.449-1.796.449h-2.814c-.876 0-1.493-.175-1.851-.524-.358-.348-.537-.965-.537-1.85v-2.153c0-.897.174-1.534.523-1.91.349-.375.97-.563 1.865-.563h2.814c.827 0 1.407.16 1.74.479.383.365.574 1.03.574 1.994v2.154z" stroke="#929497" stroke-width=".422"/><path fill="#929497" d="M73.38 65h-.721v-6.212l-1.74 1.845-.463-.48 1.907-2.083h1.018z"/><path stroke="#929497" stroke-width=".422" d="M73.38 65h-.721v-6.212l-1.74 1.845-.463-.48 1.907-2.083h1.018z"/><path d="M82.915 62.806v-3.918l-4.397 3.918h4.397zm.666-4.736v4.736h.861v.698h-.86V65h-.667v-1.496h-5.369v-.719l5.313-4.715h.722z" fill="#929497"/><path d="M82.915 62.806v-3.918l-4.397 3.918h4.397zm.666-4.736v4.736h.861v.698h-.86V65h-.667v-1.496h-5.369v-.719l5.313-4.715h.722z" stroke="#929497" stroke-width=".422"/><path d="M92.282 60.533c0-.691-.12-1.163-.362-1.416-.241-.252-.68-.379-1.318-.379h-2.526c-.687 0-1.136.103-1.347.31-.235.232-.352.727-.352 1.485v2.094c0 .738.123 1.21.371 1.416.204.173.647.259 1.328.259h2.526c.662 0 1.092-.083 1.29-.25.26-.212.39-.687.39-1.425v-2.094zm.667 2.094c0 .964-.176 1.609-.528 1.934-.315.292-.916.439-1.805.439h-2.518c-.9 0-1.511-.147-1.832-.44-.358-.324-.537-.97-.537-1.933v-2.094c0-.997.163-1.662.49-1.994.327-.333.954-.499 1.88-.499h2.517c.827 0 1.41.163 1.75.489.389.372.583 1.04.583 2.004v2.094z" fill="#929497"/><path d="M92.282 60.533c0-.691-.12-1.163-.362-1.416-.241-.252-.68-.379-1.318-.379h-2.526c-.687 0-1.136.103-1.347.31-.235.232-.352.727-.352 1.485v2.094c0 .738.123 1.21.371 1.416.204.173.647.259 1.328.259h2.526c.662 0 1.092-.083 1.29-.25.26-.212.39-.687.39-1.425v-2.094zm.667 2.094c0 .964-.176 1.609-.528 1.934-.315.292-.916.439-1.805.439h-2.518c-.9 0-1.511-.147-1.832-.44-.358-.324-.537-.97-.537-1.933v-2.094c0-.997.163-1.662.49-1.994.327-.333.954-.499 1.88-.499h2.517c.827 0 1.41.163 1.75.489.389.372.583 1.04.583 2.004v2.094z" stroke="#929497" stroke-width=".422"/><path d="M100.687 60.533c0-.691-.121-1.163-.362-1.416-.242-.252-.681-.379-1.318-.379H96.48c-.688 0-1.136.103-1.347.31-.235.232-.353.727-.353 1.485v2.094c0 .738.124 1.21.372 1.416.204.173.647.259 1.328.259h2.526c.662 0 1.092-.083 1.29-.25.26-.212.39-.687.39-1.425v-2.094zm.666 2.094c0 .964-.176 1.609-.527 1.934-.315.292-.917.439-1.805.439h-2.518c-.9 0-1.512-.147-1.833-.44-.357-.324-.537-.97-.537-1.933v-2.094c0-.997.164-1.662.49-1.994.328-.333.954-.499 1.88-.499h2.518c.827 0 1.41.163 1.749.489.39.372.583 1.04.583 2.004v2.094z" fill="#929497"/><path d="M100.687 60.533c0-.691-.121-1.163-.362-1.416-.242-.252-.681-.379-1.318-.379H96.48c-.688 0-1.136.103-1.347.31-.235.232-.353.727-.353 1.485v2.094c0 .738.124 1.21.372 1.416.204.173.647.259 1.328.259h2.526c.662 0 1.092-.083 1.29-.25.26-.212.39-.687.39-1.425v-2.094zm.666 2.094c0 .964-.176 1.609-.527 1.934-.315.292-.917.439-1.805.439h-2.518c-.9 0-1.512-.147-1.833-.44-.357-.324-.537-.97-.537-1.933v-2.094c0-.997.164-1.662.49-1.994.328-.333.954-.499 1.88-.499h2.518c.827 0 1.41.163 1.749.489.39.372.583 1.04.583 2.004v2.094z" stroke="#929497" stroke-width=".422"/><path fill="#929497" d="M107 65h-.722v-6.212l-1.74 1.845-.463-.48 1.907-2.083H107z"/><path stroke="#929497" stroke-width=".422" d="M107 65h-.722v-6.212l-1.74 1.845-.463-.48 1.907-2.083H107z"/></g></svg>