<svg width="44" height="44" viewBox="0 0 44 44" fill="none" xmlns="http://www.w3.org/2000/svg">
<g clip-path="url(#clip0_1_113)">
<path d="M23.7394 8.06964C23.4902 8.17361 23.3276 8.41621 23.3276 8.68544L23.3276 15.9883L6.66653 15.9883C6.29865 15.9883 6.00006 16.2869 6.00006 16.6548L6.00006 27.3179C6.00006 27.6858 6.29865 27.9844 6.66653 27.9844L23.3276 27.9844L23.3277 35.3152C23.3277 35.5845 23.4903 35.8271 23.7382 35.931C23.9874 36.0337 24.274 35.9777 24.4646 35.7871L37.8042 22.4915C37.9295 22.3662 38.0001 22.1969 38.0001 22.0197C38.0001 21.8424 37.9295 21.6731 37.8055 21.5478L24.466 8.21359C24.2753 8.02297 23.9887 7.96568 23.7394 8.06964Z" fill="white"/>
</g>
<defs>
<clipPath id="clip0_1_113">
<rect width="32" height="32" fill="white" transform="translate(6.00006 38) rotate(-90)"/>
</clipPath>
</defs>
</svg>
